# xmcd
#
# Track frame offsets: 
#        150
#        11603
#        22134
#        34144
#        49140
#        64981
#        78012
#        93790
#        109049
#        118123
#        129502
#        140944
#        149499
#        161358
#        180520
#        194121
#        207593
#        224652
#        234215
#        248000
#        261444
#        276938
#        287962
#        296517
#        311681
#
# Disc length: 4369 seconds
#
# Revision: 0
# Processed by: cddbd v1.5.1PL0 Copyright (c) Steve Scherf et al.
# Submitted via: ExactAudioCopy v0.95a4
#
DISCID=8a110f19
DTITLE=Various Artist - Boogie woogie 2
DYEAR=1900
DGENRE=Blues
TTITLE0=Why don't you do right (28)
TTITLE1=You are the boss (28)
TTITLE2=Swing lover (29)
TTITLE3=Is You or is you ain't my baby (29)
TTITLE4=One more kiss (31)
TTITLE5=Don't you know (32)
TTITLE6=Sweet dreams (32)
TTITLE7=Fever (34)
TTITLE8=All shook up (38)
TTITLE9=Anssi kulta, tanssi rock'n roll (39)
TTITLE10=The cat (39)
TTITLE11=Great balls of fire (41)
TTITLE12=Choo choo cha boogie (42)
TTITLE13=Two timing baby (43)
TTITLE14=Played with the pudel (44)
TTITLE15=You'd better listen to me now (44)
TTITLE16=Blow bone blow (45)
TTITLE17=Country boy (45)
TTITLE18=Solid gold cadillac (46)
TTITLE19=Hey Louis Prima (47)
TTITLE20=Bobbin' the boogie (48)
TTITLE21=Princess Toben (50)
TTITLE22=Before I die (50)
TTITLE23=Boogie it out (51)
TTITLE24=Bluecoat man (54)
EXTD=
EXTT0=
EXTT1=
EXTT2=
EXTT3=
EXTT4=
EXTT5=
EXTT6=
EXTT7=
EXTT8=
EXTT9=
EXTT10=
EXTT11=
EXTT12=
EXTT13=
EXTT14=
EXTT15=
EXTT16=
EXTT17=
EXTT18=
EXTT19=
EXTT20=
EXTT21=
EXTT22=
EXTT23=
EXTT24=
PLAYORDER=
